<?xml version="1.0" encoding="iso-8859-1"?>
<!-- Generator: Adobe Illustrator 18.0.0, SVG Export Plug-In . SVG Version: 6.00 Build 0)  -->
<!DOCTYPE svg PUBLIC "-//W3C//DTD SVG 1.1//EN" "http://www.w3.org/Graphics/SVG/1.1/DTD/svg11.dtd">
<svg version="1.1" id="Capa_1" xmlns="http://www.w3.org/2000/svg" xmlns:xlink="http://www.w3.org/1999/xlink" x="0px" y="0px"
	 viewBox="0 0 297.503 297.503" style="enable-background:new 0 0 297.503 297.503;" xml:space="preserve">
<g id="XMLID_32_">
	<g>
		<polygon style="fill:#0B77A5;" points="187.45,122.307 44.79,264.957 24.24,244.397 166.89,101.747 		"/>
		<path d="M289.79,81.197c9.95,9.95,9.95,26.13,0,36.08l-35.65,35.65c-4.97,4.97-11.51,7.46-18.04,7.46s-13.06-2.49-18.03-7.46
			l-16.57-16.57L51.82,286.037c-1.94,1.94-4.48,2.91-7.03,2.91c-2.54,0-5.08-0.97-7.02-2.91l-34.61-34.61
			c-3.88-3.88-3.88-10.17,0-14.05l149.68-149.68l-27.58-27.58c-3.88-3.88-3.88-10.17,0-14.05l34.6-34.61
			c2.35-2.34,5.72-3.36,8.98-2.71l57.67,11.53c1.93,0.39,3.69,1.33,5.08,2.72L289.79,81.197z M275.75,103.227
			c2.19-2.2,2.19-5.78,0-7.98l-56.08-56.07l-49.52-9.91l-23.82,23.83l85.79,85.78c2.19,2.2,5.77,2.2,7.97,0L275.75,103.227z
			 M44.79,264.957l142.66-142.65l-20.56-20.56L24.24,244.397L44.79,264.957z"/>
		<path style="fill:#CECECE;" d="M275.75,95.247c2.19,2.2,2.19,5.78,0,7.98l-35.66,35.65c-2.2,2.2-5.78,2.2-7.97,0l-85.79-85.78
			l23.82-23.83l49.52,9.91L275.75,95.247z"/>
	</g>
	<g>
	</g>
</g>
<g>
</g>
<g>
</g>
<g>
</g>
<g>
</g>
<g>
</g>
<g>
</g>
<g>
</g>
<g>
</g>
<g>
</g>
<g>
</g>
<g>
</g>
<g>
</g>
<g>
</g>
<g>
</g>
<g>
</g>
</svg>
